Simulation
nRows=23
nColumns=15
endheader
time  TH_x TH_y TH_z SC_y  SC_z  SC_x  AC_y  AC_z  AC_x  GH_y  GH_z  GH_yy  EL_x  PS_y
0.0  0.000000  0.000000  0.000000  -35.89641041172554  2.8530168364331994  2.627802741818504  54.997342176031744  6.2286134150783505  -6.20480045443586  -3.676736201628127  4.95017177574744  20.942970532876725  23.066741222332766  0.000000
0.011899999999999999  0.000000  0.000000  0.000000  -36.11695359591721  2.782353427285458  2.4383649778748175  54.7909901954655  6.373007009910414  -6.272772841556673  -3.413380263078896  4.8506297702241525  20.736229385162314  22.97228527555795  0.000000
0.023799999999999998  0.000000  0.000000  0.000000  -36.11533922637013  2.984515873393214  2.282838109000534  54.56789127464149  6.438551392673723  -6.185968033035253  -2.842495565678525  4.61098322108883  20.583550931674317  22.803935627534383  0.000000
0.035699999999999996  0.000000  0.000000  0.000000  -36.12444066971548  3.1668208993938363  2.151294594249835  54.393619634948095  6.49632788225949  -6.075189797690862  -2.20355093154217  4.423056527268999  20.472451505194993  22.676281723727172  0.000000
0.047599999999999996  0.000000  0.000000  0.000000  -36.15901204117392  3.294122092674059  2.0352782543938552  54.29489662113441  6.54576417170825  -5.961416847103909  -1.630073748393392  4.303829515847821  20.393796131728752  22.58083628811119  0.000000
0.0595  0.000000  0.000000  0.000000  -36.206525218973866  3.36671267647437  1.938354700719286  54.24386056505358  6.581148938942795  -5.865079073533639  -1.1561677891636661  4.252788124472709  20.378222412219245  22.51906977157863  0.000000
0.07139999999999999  0.000000  0.000000  0.000000  -36.246319516195086  3.4026482366943793  1.8697801033636374  54.221156894387256  6.589547494732289  -5.795285702783804  -0.8025324705545874  4.255423115601474  20.427527207881433  22.491524076118356  0.000000
0.0833  0.000000  0.000000  0.000000  -36.27485550549767  3.419683576393352  1.8208315097263488  54.213117499822275  6.572740560446028  -5.742641693758913  -0.5650301409200199  4.306824591286785  20.545116221321944  22.49655325810906  0.000000
0.09519999999999999  0.000000  0.000000  0.000000  -36.29256944461995  3.425766451545438  1.7842910189899652  54.209920163545505  6.535429747787103  -5.705348542500275  -0.44006562969542024  4.405105443825759  20.72241256240123  22.537828033926118  0.000000
0.10709999999999999  0.000000  0.000000  0.000000  -36.30333987667414  3.4263323110443817  1.7559240903113036  54.205907817837584  6.479854488390827  -5.679973396655002  -0.4193422153073911  4.55077150367827  20.9493933833482  22.609016632899365  0.000000
0.119  0.000000  0.000000  0.000000  -36.310150143793166  3.424927405019263  1.732978451757983  54.1988514313875  6.407878448862469  -5.6638289093739616  -0.4952655873786883  4.7441527792950335  21.212079834561997  22.703524299199934  0.000000
0.1309  0.000000  0.000000  0.000000  -36.31541810986297  3.424304849226042  1.7146970358658344  54.18732336512477  6.3209997725853  -5.654101336176981  -0.6577645669309058  4.985395316312745  21.49771323956517  22.81419758402051  0.000000
0.14279999999999998  0.000000  0.000000  0.000000  -36.32072845430798  3.42525134676827  1.6991010238706845  54.1725858070961  6.222880474263907  -5.648262872528923  -0.8966510846949616  5.274956342832161  21.793525608024268  22.935669408582992  0.000000
0.15469999999999998  0.000000  0.000000  0.000000  -36.326639623885285  3.4282800693863407  1.688410579960285  54.155093556802825  6.114597508961519  -5.645649577910294  -1.2006216088386397  5.612892688511465  22.08867521116103  23.06416757497303  0.000000
0.1666  0.000000  0.000000  0.000000  -36.333284514751135  3.4337313198234467  1.6821028312896698  54.13770476263845  5.99982680588408  -5.644132917528046  -1.5588881757492667  5.998982832111488  22.372770094562625  23.197471799750627  0.000000
0.1785  0.000000  0.000000  0.000000  -36.340749061888786  3.441554687831473  1.6818613109183065  54.121935808586166  5.880466902048655  -5.642724597025817  -1.9601729207782501  6.433160781957678  22.637662224151207  23.334240573705895  0.000000
0.19039999999999999  0.000000  0.000000  0.000000  -36.348875336527435  3.4518241083944776  1.6871206514262624  54.11069969903999  5.760132004590209  -5.63942983441325  -2.3942992749533767  6.914600503170615  22.87543522244657  23.47347079780739  0.000000
0.20229999999999998  0.000000  0.000000  0.000000  -36.35793709944427  3.463832380979004  1.6978795164776594  54.10548431965329  5.64156883019827  -5.633326078217916  -2.851224755992661  7.443097200965592  23.080331320425795  23.614769712407725  0.000000
0.21419999999999997  0.000000  0.000000  0.000000  -36.368355713973244  3.4769413535412688  1.7141525963113668  54.10825009030478  5.52738760834202  -5.623697398215262  -3.322334784903229  8.01746178895221  23.246511649818256  23.75721432464532  0.000000
0.2261  0.000000  0.000000  0.000000  -36.38087115939883  3.4905059991704297  1.7357918510758723  54.120274613629455  5.419387397259277  -5.610093754407777  -3.7998595364155587  8.636916233287915  23.369578832797455  23.8995238004902  0.000000
0.238  0.000000  0.000000  0.000000  -36.39670948044801  3.5040779467323757  1.7633520380877232  54.14212828245203  5.318984177488516  -5.592779995776075  -4.276484649477477  9.299787661495966  23.445805607562864  24.040159920330016  0.000000
0.24989999999999998  0.000000  0.000000  0.000000  -36.41737433017029  3.517983505005037  1.7978207108672923  54.173500822402914  5.226447377317375  -5.5725807499740165  -4.7454495577923135  10.004460459653778  23.473022859500688  24.17800416253574  0.000000
0.2618  0.000000  0.000000  0.000000  -36.444644793845484  3.5331341037599246  1.8405658027698228  54.213880872266486  5.141821346561163  -5.550621757939489  -5.200766750857568  10.748171051196575  23.44876912425814  24.31231478564156  0.000000
